<?xml version="1.0" encoding="UTF-8"?>
<svg version="1.1" xmlns="http://www.w3.org/2000/svg" width="512" height="512">
<path d="M0 0 C3.17472207 0.64201244 4.15646396 1.84342316 6.10546875 4.42578125 C6.49605079 7.44760606 6.64160911 10.10361034 6.60667419 13.12477112 C6.61220859 14.01220298 6.61774299 14.89963485 6.62344509 15.81395859 C6.63708056 18.79365461 6.62206666 21.77251721 6.60717773 24.75219727 C6.61095983 26.8858272 6.61645896 29.01945467 6.62355042 31.15307617 C6.63753571 36.95254657 6.62631393 42.75172132 6.6098392 48.55117536 C6.59601214 54.61297174 6.60244603 60.67475055 6.60597229 66.73655701 C6.60867606 76.91613544 6.59518371 87.09559607 6.57202148 97.27514648 C6.54540363 109.05518542 6.54366633 120.83502743 6.55540985 132.61508614 C6.56617684 143.93455251 6.56000949 155.25394744 6.54585457 166.57340813 C6.54008612 171.39673482 6.54018417 176.22000938 6.54491997 181.04333687 C6.54968095 186.71915 6.53962451 192.39474658 6.51796532 198.07051849 C6.51238555 200.15751604 6.51194299 202.24453435 6.51691818 204.33153343 C6.52284308 207.17252353 6.51041985 210.01284529 6.4931488 212.85377502 C6.49915885 213.6866438 6.50516889 214.51951258 6.51136106 215.3776198 C6.44905336 220.983899 6.44905336 220.983899 4.7965427 223.10918373 C2.07698958 225.22651094 -0.52212964 225.24828643 -3.89453125 225.42578125 C-6.20703125 224.80078125 -6.20703125 224.80078125 -7.89453125 223.42578125 C-10.24145485 219.01401706 -10.17806207 214.6850861 -10.15522766 209.80981445 C-10.15905321 208.94335706 -10.16287876 208.07689966 -10.16682023 207.18418598 C-10.17713695 204.28158306 -10.17316061 201.37917845 -10.16918945 198.4765625 C-10.17353661 196.39529233 -10.17871977 194.31402376 -10.18467712 192.23275757 C-10.19807672 186.57998764 -10.1986448 180.92728452 -10.19611382 175.2745018 C-10.19504494 170.5575637 -10.19992527 165.84063916 -10.20471925 161.12370396 C-10.21581738 149.99814911 -10.21624986 138.87262802 -10.21020508 127.74707031 C-10.20416158 116.26300899 -10.2164852 104.77907008 -10.23777515 93.29502964 C-10.25537573 83.43929798 -10.26139501 73.58360534 -10.2581374 63.72785854 C-10.25632222 57.83958547 -10.25898431 51.95139974 -10.27285194 46.06314087 C-10.28540083 40.52768206 -10.28351403 34.99241454 -10.27044106 29.45695877 C-10.26806945 27.42400677 -10.27083075 25.39104142 -10.27906418 23.35810471 C-10.28948377 20.58576208 -10.28146957 17.81406704 -10.26875305 15.04174805 C-10.27612734 14.23484181 -10.28350162 13.42793558 -10.29109937 12.59657764 C-10.21033681 4.24354335 -8.24555293 0.44863234 0 0 Z " fill="#A7A28D" transform="translate(255.89453125,-0.42578125)"/>
<path d="M0 0 C3.6934915 2.61101895 6.44389586 5.53408387 9.25 9.0625 C10.03503906 10.04089844 10.82007812 11.01929687 11.62890625 12.02734375 C12.41136719 13.00832031 13.19382812 13.98929688 14 15 C15.39299431 16.71064909 16.78883055 18.41898791 18.1875 20.125 C18.92355469 21.02476563 19.65960938 21.92453125 20.41796875 22.8515625 C24.21780423 27.48921685 28.03363017 32.11373234 31.84643555 36.74072266 C35.77252838 41.50626741 39.68698864 46.28109057 43.59375 51.0625 C46.72176153 54.88111148 49.86084917 58.69054423 53 62.5 C56.84064015 67.16073456 60.67879554 71.82330201 64.5 76.5 C70.64422331 84.01843961 76.8250837 91.50677 83 99 C89.88291053 107.35237745 96.76458492 115.70546251 103.61328125 124.0859375 C106.6314898 127.771017 109.65913727 131.44826394 112.6875 135.125 C113.27781006 135.84220215 113.86812012 136.5594043 114.47631836 137.29833984 C117.58952186 141.079467 120.70824237 144.85584882 123.8359375 148.625 C124.46024658 149.37894043 125.08455566 150.13288086 125.7277832 150.90966797 C126.91450305 152.34257494 128.10302315 153.77399367 129.29370117 155.20361328 C138.7941075 166.6874353 138.7941075 166.6874353 139.5 171.1875 C138.93360049 174.37349723 138.3670506 175.79619426 136 178 C132.80856551 179.29382479 131.41983546 179.16278139 128.19921875 177.9140625 C124.31871907 175.59239602 121.95138676 172.91309783 119.125 169.4375 C118.33911499 168.49596069 118.33911499 168.49596069 117.53735352 167.53540039 C113.98283503 163.25959606 110.50487331 158.92197057 107.05859375 154.55859375 C104.5918838 151.4927588 102.05127586 148.49550413 99.5 145.5 C95.6091876 140.93079634 91.82070887 136.29827185 88.09375 131.59375 C85.61188959 128.51920651 83.06151487 125.50820956 80.5 122.5 C76.60924384 117.93074686 72.82071079 113.29827428 69.09375 108.59375 C66.61188959 105.51920651 64.06151487 102.50820956 61.5 99.5 C57.60924384 94.93074686 53.82071079 90.29827428 50.09375 85.59375 C47.61188959 82.51920651 45.06151487 79.50820956 42.5 76.5 C38.60924384 71.93074686 34.82071079 67.29827428 31.09375 62.59375 C28.61188653 59.51920272 26.06141407 56.50829908 23.5 53.5 C19.6838008 49.01552927 15.95357631 44.4794889 12.296875 39.86328125 C9.82768602 36.78519362 7.32091864 33.74058626 4.80615234 30.69970703 C2.96644644 28.47254282 1.13524412 26.23859229 -0.6953125 24.00390625 C-2.59648047 21.68642019 -4.5174803 19.40870982 -6.4921875 17.15234375 C-10.95433171 11.92858858 -10.95433171 11.92858858 -11.1875 7.1875 C-8.99673745 1.30703212 -6.41604003 -1.04751674 0 0 Z " fill="#A09C87" transform="translate(107,73)"/>
<path d="M0 0 C2.94897461 1.37255859 2.94897461 1.37255859 5.90234375 3.1484375 C7.58529541 4.14810547 7.58529541 4.14810547 9.30224609 5.16796875 C10.5141068 5.90346561 11.72585503 6.63914781 12.9375 7.375 C14.20848147 8.13522859 15.48014333 8.89432067 16.75244141 9.65234375 C19.44412503 11.25818627 22.13185473 12.8703791 24.81689453 14.48730469 C29.03220057 17.02338265 33.26234917 19.53391802 37.49609375 22.0390625 C38.90960075 22.87578987 40.32309369 23.71254101 41.73657227 24.54931641 C42.77142258 25.16193329 42.77142258 25.16193329 43.82717896 25.78692627 C52.06083906 30.66432354 60.28111164 35.56384448 68.484375 40.4921875 C75.43307709 44.66663487 82.40172057 48.80688341 89.37524414 52.93969727 C100.75148928 59.68266762 112.11234202 66.45000343 123.44189453 73.27124023 C129.44035138 76.87838751 135.45559225 80.45559304 141.484375 84.01171875 C142.95249735 84.87886664 144.42059634 85.7460541 145.88867188 86.61328125 C148.74169022 88.29847722 151.59758614 89.97865386 154.45507812 91.65625 C155.76704125 92.43079623 157.07889544 93.20552703 158.390625 93.98046875 C158.98534607 94.32776535 159.58006714 94.67506195 160.19281006 95.03288269 C169.53136344 100.56805496 169.53136344 100.56805496 171.125 105.4375 C171 109 171 109 168.9375 111.875 C165.68159639 114.23033452 163.96593606 114.72333561 160 115 C157.53295898 114.0949707 157.53295898 114.0949707 155.05859375 112.61328125 C154.1032373 112.05334473 153.14788086 111.4934082 152.16357422 110.91650391 C151.11959473 110.28405762 150.07561523 109.65161133 149 109 C147.25469672 107.98002401 145.50937059 106.96008653 143.76338196 105.94128418 C140.51946923 104.04065735 137.29193055 102.11259306 134.0625 100.1875 C132.64609539 99.34518472 131.22967253 98.50290011 129.81323242 97.66064453 C120.20438627 91.94050655 110.63964144 86.15032472 101.09353638 80.32626343 C92.28409885 74.95455619 83.41335676 69.69724916 74.5 64.5 C64.43021967 58.62845702 54.4281078 52.65858612 44.48052979 46.58233643 C37.50863501 42.32406978 30.51575716 38.10600708 23.48046875 33.953125 C22.76233505 33.52885223 22.04420135 33.10457947 21.30430603 32.66744995 C17.81703181 30.60817123 14.32703122 28.55373622 10.83276367 26.50634766 C-6.95820749 16.04179251 -6.95820749 16.04179251 -12 11 C-12.3397122 7.99112055 -12.54965117 5.90284527 -12 3 C-8.26554013 -1.63978348 -5.52400946 -1.17908966 0 0 Z " fill="#A29E89" transform="translate(271,266)"/>
<path d="M0 0 C2.34822536 3.52233804 2.49861261 4.85174872 2 9 C0.27734375 11.74609375 0.27734375 11.74609375 -2.0625 14.4375 C-2.88621094 15.39140625 -3.70992187 16.3453125 -4.55859375 17.328125 C-7.07802835 20.08539423 -9.65300681 22.74657508 -12.3359375 25.34375 C-14.6861758 27.68295431 -16.82009049 30.1888437 -18.984375 32.69921875 C-21.44480269 35.5077302 -23.96974992 38.25461879 -26.5 41 C-29.53904534 44.30013347 -32.56156459 47.6094976 -35.5 51 C-38.9067735 54.9308925 -42.43002785 58.75196573 -45.953125 62.578125 C-48.50555143 65.35494057 -51.02983288 68.14980717 -53.5 71 C-56.9067735 74.9308925 -60.43002785 78.75196573 -63.953125 82.578125 C-66.50555143 85.35494057 -69.02983288 88.14980717 -71.5 91 C-74.9067735 94.9308925 -78.43002785 98.75196573 -81.953125 102.578125 C-84.50555143 105.35494057 -87.02983288 108.14980717 -89.5 111 C-92.9067735 114.9308925 -96.43002785 118.75196573 -99.953125 122.578125 C-102.50555143 125.35494057 -105.02983288 128.14980717 -107.5 131 C-110.54033101 134.49785655 -113.63361897 137.94494402 -116.75 141.375 C-117.22244141 141.89964844 -117.69488281 142.42429687 -118.18164062 142.96484375 C-120.35381798 145.34522694 -122.30157907 147.20105271 -125 149 C-128.33936274 148.82110557 -130.97604532 148.61437281 -133.875 146.875 C-135.62772078 143.95379869 -135.80332694 141.37562487 -136 138 C-134.69140625 135.5078125 -134.69140625 135.5078125 -132.5625 133.125 C-131.74136719 132.19300781 -130.92023438 131.26101563 -130.07421875 130.30078125 C-129.05283184 129.1974078 -128.02773436 128.09746356 -127 127 C-126.06534912 125.99525635 -126.06534912 125.99525635 -125.11181641 124.97021484 C-121.7184516 121.33032702 -118.30355785 117.71256289 -114.8671875 114.11328125 C-111.72461516 110.8041166 -108.70781866 107.405833 -105.71923828 103.95776367 C-102.8885131 100.73430652 -99.94217984 97.621432 -97 94.5 C-92.86267839 90.09024435 -88.77360318 85.66125621 -84.828125 81.078125 C-81.79704534 77.63253872 -78.66173548 74.2831191 -75.54248047 70.91748047 C-72.50214317 67.63444709 -69.48564451 64.33306497 -66.5 61 C-63.03510167 57.13337433 -59.52695432 53.30986214 -56 49.5 C-51.72022376 44.87649899 -47.48241345 40.21907612 -43.27734375 35.52734375 C-40.70190207 32.66917777 -38.10312271 29.83291561 -35.5 27 C-32.12742492 23.32888438 -28.76947059 19.64556604 -25.4375 15.9375 C-24.36242187 14.74447266 -24.36242187 14.74447266 -23.265625 13.52734375 C-21.62183607 11.69366886 -19.98764947 9.85137151 -18.359375 8.00390625 C-17.46884323 7.00252125 -16.57822014 6.00121745 -15.6875 5 C-14.88699219 4.0925 -14.08648437 3.185 -13.26171875 2.25 C-8.61685597 -2.37079613 -6.14358867 -2.38917337 0 0 Z " fill="#A29E89" transform="translate(249,269)"/>
<path d="M0 0 C3.5625 0.4375 3.5625 0.4375 5.9375 2.125 C7.83209974 4.82116117 8.5625 6.12664403 8.5625 9.4375 C6.13143598 15.18365132 2.29669523 18.89819193 -2.15234375 23.1953125 C-4.75532813 25.74935187 -7.1189001 28.44187547 -9.4921875 31.20703125 C-11.92473615 33.99615831 -14.42928614 36.71667549 -16.9375 39.4375 C-19.97658849 42.73759256 -22.99906569 46.04699888 -25.9375 49.4375 C-29.3442735 53.3683925 -32.86752785 57.18946573 -36.390625 61.015625 C-38.94305143 63.79244057 -41.46733288 66.58730717 -43.9375 69.4375 C-47.3442735 73.3683925 -50.86752785 77.18946573 -54.390625 81.015625 C-56.94305143 83.79244057 -59.46733288 86.58730717 -61.9375 89.4375 C-65.3442735 93.3683925 -68.86752785 97.18946573 -72.390625 101.015625 C-74.94305143 103.79244057 -77.46733288 106.58730717 -79.9375 109.4375 C-83.3442735 113.3683925 -86.86752785 117.18946573 -90.390625 121.015625 C-92.94305143 123.79244057 -95.46733288 126.58730717 -97.9375 129.4375 C-100.92698881 132.88191102 -103.98436483 136.25995476 -107.0625 139.625 C-107.51818359 140.12451172 -107.97386719 140.62402344 -108.44335938 141.13867188 C-109.76567842 142.57998045 -111.10148859 144.00887423 -112.4375 145.4375 C-113.29988281 146.37207031 -114.16226562 147.30664062 -115.05078125 148.26953125 C-117.4375 150.4375 -117.4375 150.4375 -121 150.9375 C-124.58274531 150.41637341 -126.08008635 150.15759268 -128.4375 147.4375 C-129.53730685 144.06475898 -129.87729272 142.31561457 -128.26953125 139.10546875 C-126.15426732 136.02503108 -123.74778843 133.3319648 -121.1875 130.625 C-120.19070321 129.55534222 -119.19460795 128.48503026 -118.19921875 127.4140625 C-117.7201709 126.90004883 -117.24112305 126.38603516 -116.74755859 125.85644531 C-115.12790471 124.10217241 -113.55853637 122.30867183 -112 120.5 C-108.37605356 116.31717989 -104.60494254 112.27478193 -100.84228516 108.21728516 C-97.59134488 104.70537256 -94.40765687 101.14748582 -91.27734375 97.52734375 C-88.87079844 94.79379441 -86.40446804 92.11635994 -83.9375 89.4375 C-80.89859823 86.13723124 -77.875939 82.82800653 -74.9375 79.4375 C-71.5307265 75.5066075 -68.00747215 71.68553427 -64.484375 67.859375 C-61.93194857 65.08255943 -59.40766712 62.28769283 -56.9375 59.4375 C-53.5307265 55.5066075 -50.00747215 51.68553427 -46.484375 47.859375 C-43.93194857 45.08255943 -41.40766712 42.28769283 -38.9375 39.4375 C-35.5307265 35.5066075 -32.00747215 31.68553427 -28.484375 27.859375 C-25.93194857 25.08255943 -23.40766712 22.28769283 -20.9375 19.4375 C-17.91045478 15.94758136 -14.80807094 12.53111338 -11.6875 9.125 C-11.21505859 8.60873047 -10.74261719 8.09246094 -10.25585938 7.56054688 C-8.98870756 6.18100105 -7.71343471 4.80892664 -6.4375 3.4375 C-5.63892578 2.53257813 -5.63892578 2.53257813 -4.82421875 1.609375 C-3.4375 0.4375 -3.4375 0.4375 0 0 Z " fill="#A09C87" transform="translate(391.4375,102.5625)"/>
<path d="M0 0 C1.5873613 0.31102485 3.1748486 0.62140717 4.76245117 0.93119812 C9.05706063 1.77133581 13.34971937 2.62106282 17.64199305 3.47304368 C21.23001251 4.18428899 24.81897134 4.89072708 28.40794265 5.59715098 C36.87455271 7.26369105 45.3396185 8.93791108 53.80371094 10.6171875 C62.5291476 12.34819806 71.25686292 14.06733352 79.98582566 15.78046685 C87.48962114 17.25351966 94.99205366 18.73336811 102.49341094 20.21878737 C106.9696572 21.10513912 111.44634914 21.98904751 115.92432022 22.86664772 C120.13332629 23.69189105 124.34055832 24.52564642 128.54658508 25.36593819 C130.08829937 25.6724954 131.63060545 25.97609381 133.17353439 26.27647781 C135.28341667 26.68773989 137.39087235 27.10976466 139.49807739 27.53450012 C140.67679979 27.76771375 141.85552219 28.00092737 143.06996346 28.24120808 C147.14514553 29.33208074 151.06962881 30.53869936 153.75341797 33.92260742 C154.5376414 36.9723652 154.15091067 39.09128765 153.31591797 42.11010742 C151.67405287 44.75533453 150.49890447 45.06457334 147.465271 45.81945801 C141.88450012 46.52548164 136.49823114 45.06954759 131.05126953 43.94799805 C129.82874985 43.70579529 128.60623016 43.46359253 127.34666443 43.21405029 C123.9980154 42.54828072 120.65172117 41.87236154 117.30605412 41.19186592 C113.76467587 40.47413382 110.22067093 39.76960931 106.67694092 39.06359863 C99.9312974 37.71761364 93.18806711 36.35991652 86.44562984 34.99797201 C78.91138252 33.47664082 71.37462936 31.96792569 63.83758259 30.46053505 C54.42257705 28.5775299 45.00800487 26.69247864 35.59631348 24.79296875 C32.84855697 24.23849797 30.1007981 23.68403887 27.35302734 23.12963867 C26.36123584 22.92950889 26.36123584 22.92950889 25.34940815 22.72533607 C17.06624446 21.0548203 8.77851033 19.41184558 0.48193359 17.80932617 C-1.19429951 17.4834029 -2.87050933 17.15735985 -4.54669189 16.83117676 C-7.43769738 16.26874801 -10.33054497 15.71802737 -13.22528076 15.1751709 C-14.43919495 14.93907104 -15.65310913 14.70297119 -16.90380859 14.4597168 C-17.91590393 14.2680896 -18.92799927 14.0764624 -19.97076416 13.87902832 C-22.96663181 13.03003629 -25.16270384 11.93299429 -27.68408203 10.11010742 C-29.04467863 6.2834295 -28.87322594 4.58747063 -27.37158203 0.79760742 C-22.3204475 -7.24679202 -7.7886184 -1.55423357 0 0 Z " fill="#A5A08B" transform="translate(39.68408203125,211.889892578125)"/>
<path d="M0 0 C2.19481659 1.5759201 2.19481659 1.5759201 4 4 C4.50336456 7.21405792 4.50336456 7.21405792 4.50793457 11.09777832 C4.51729451 12.17060397 4.51729451 12.17060397 4.52684355 13.26510286 C4.54280075 15.66209646 4.53015947 18.05807696 4.51757812 20.45507812 C4.52299806 22.17330011 4.53012 23.89151744 4.53881836 25.60972595 C4.55707 30.27707985 4.54997663 34.9440805 4.53730202 39.61144066 C4.52718387 44.49296403 4.5365644 49.3744569 4.54284668 54.25598145 C4.55012654 62.4540755 4.54052649 70.65202547 4.52148438 78.85009766 C4.49971498 88.33189646 4.50676612 97.81335123 4.52879 107.2951417 C4.54693434 115.43197785 4.54950705 123.56871036 4.53903532 131.70556021 C4.53279507 136.56711562 4.53197933 141.42850926 4.54518127 146.29005432 C4.55672512 150.86036365 4.54874101 155.4302289 4.52560425 160.00049019 C4.52030929 161.67909062 4.52184437 163.35772835 4.53065491 165.03631401 C4.54156353 167.32545662 4.52790556 169.61317047 4.50793457 171.90222168 C4.50642647 173.18384941 4.50491837 174.46547714 4.50336456 175.78594208 C3.9140567 179.54876079 2.9973847 180.72935191 0 183 C-2.90784881 183.70882303 -4.942539 183.33971789 -8 183 C-10.67431489 181.18836733 -10.95920359 180.12238923 -12 177 C-12.09865811 174.7286799 -12.13503926 172.45451614 -12.14044189 170.18106079 C-12.14341302 169.48373789 -12.14638414 168.78641499 -12.1494453 168.0679611 C-12.15813337 165.72579661 -12.15964062 163.38368324 -12.16113281 161.04150391 C-12.16576087 159.36446524 -12.17078551 157.68742762 -12.17617798 156.01039124 C-12.18930418 151.45046163 -12.19574723 146.89054676 -12.20018864 142.33060122 C-12.20311867 139.48271136 -12.20722333 136.63482554 -12.21169281 133.78693771 C-12.22536759 124.87928397 -12.23503465 115.97163944 -12.2388947 107.06397593 C-12.24337721 96.77606594 -12.26093411 86.48828869 -12.2898953 76.20041907 C-12.31149727 68.25129887 -12.32159817 60.30221605 -12.32293582 52.3530668 C-12.32398481 47.60381175 -12.32991259 42.85468149 -12.34775543 38.10545731 C-12.36421073 33.63867341 -12.36640403 29.17210846 -12.35761642 24.7053051 C-12.35684472 23.06581347 -12.36120637 21.42631018 -12.37107468 19.78684807 C-12.38375724 17.54860574 -12.37793812 15.3111432 -12.36749268 13.07290649 C-12.36895924 11.82039911 -12.3704258 10.56789173 -12.3719368 9.27742958 C-11.96845758 5.7220548 -11.14274048 3.8361235 -9 1 C-5.90826248 -0.54586876 -3.40570448 -0.29359521 0 0 Z " fill="#A7A28D" transform="translate(258,329)"/>
<path d="M0 0 C2.81831785 2.59581908 3.85564038 4.23008205 4.5625 8 C3.82999072 11.90671617 2.03642116 13.63724879 -1 16 C-4.38703552 18.04022071 -7.9008819 19.79756811 -11.4375 21.5625 C-13.5243545 22.62711066 -15.61027051 23.69356265 -17.6953125 24.76171875 C-19.27940918 25.57068604 -19.27940918 25.57068604 -20.89550781 26.39599609 C-25.57588841 28.81421728 -30.19611146 31.33727911 -34.8125 33.875 C-42.77424902 38.24116667 -50.75292648 42.57383742 -58.75 46.875 C-59.83627686 47.45934814 -60.92255371 48.04369629 -62.04174805 48.64575195 C-64.25332015 49.83514284 -66.46499053 51.024351 -68.67675781 52.21337891 C-78.45424062 57.46988928 -88.22846631 62.73243941 -98 68 C-99.59134766 68.85754883 -99.59134766 68.85754883 -101.21484375 69.73242188 C-104.35246053 71.42412346 -107.48884892 73.11808309 -110.625 74.8125 C-112.11217529 75.61361206 -112.11217529 75.61361206 -113.62939453 76.4309082 C-118.04810624 78.81971165 -122.44150765 81.23405217 -126.7734375 83.77734375 C-127.4957959 84.19846436 -128.2181543 84.61958496 -128.96240234 85.0534668 C-130.25902492 85.81487912 -131.54926828 86.58734068 -132.83056641 87.37426758 C-137.31794656 90.00761457 -140.8806563 90.77045696 -146 91 C-149.56412751 89.10418749 -150.69990163 87.88153897 -152 84.0625 C-152 80.33040284 -151.17973459 78.9947607 -149 76 C-146.65356445 74.35351562 -146.65356445 74.35351562 -143.86328125 72.90625 C-142.82365234 72.35775391 -141.78402344 71.80925781 -140.71289062 71.24414062 C-139.59076172 70.66857422 -138.46863281 70.09300781 -137.3125 69.5 C-135.53708579 68.56758822 -133.76168045 67.63515861 -131.98703003 66.70129395 C-130.16862721 65.74624259 -128.34744088 64.79666581 -126.52587891 63.84765625 C-121.32057 61.11993309 -116.16050407 58.3112839 -111 55.5 C-101.58100625 50.39023284 -92.14763092 45.30745464 -82.7109375 40.23046875 C-74.48606572 35.80395661 -66.27096809 31.35966877 -58.06103516 26.90551758 C-52.78378557 24.04399625 -47.50122537 21.19282297 -42.2109375 18.35546875 C-26.71659966 10.05196382 -26.71659966 10.05196382 -11.44140625 1.35546875 C-7.21283741 -0.99223267 -4.64963769 -1.32846791 0 0 Z " fill="#A29E89" transform="translate(467,143)"/>
<path d="M0 0 C2.72841565 1.69768085 4.49103426 2.98206853 5.9375 5.875 C6.03064694 9.0419958 5.30404509 11.10494726 4 14 C1.84562664 15.61112359 -0.00349757 16.74456786 -2.375 17.9375 C-3.06126465 18.30319092 -3.7475293 18.66888184 -4.45458984 19.0456543 C-6.04302577 19.8902232 -7.63601663 20.72625727 -9.23242188 21.55566406 C-12.33991732 23.1773951 -15.42832431 24.83233881 -18.515625 26.4921875 C-22.72055697 28.75290992 -26.92753941 31.00954098 -31.13922119 33.25765991 C-37.82032936 36.82444669 -44.48126292 40.42654158 -51.125 44.0625 C-62.28069016 50.16541525 -73.47671679 56.19232895 -84.67675781 62.21337891 C-89.07347371 64.57711435 -93.46964801 66.94185143 -97.86474609 69.30859375 C-100.02535854 70.47093011 -102.18713057 71.63111373 -104.35009766 72.7890625 C-109.82886031 75.72705834 -115.27676936 78.70782254 -120.6875 81.76953125 C-121.7688623 82.37466553 -122.85022461 82.9797998 -123.96435547 83.60327148 C-126.01291761 84.75161193 -128.05417364 85.91312406 -130.08642578 87.09008789 C-135.71266198 90.22543499 -139.53630329 91.83519677 -146 91 C-148.5 89.4375 -148.5 89.4375 -150 87 C-150.5625 83.5625 -150.5625 83.5625 -150 80 C-146.61785793 76.0253488 -142.88114517 73.55689968 -138.28515625 71.21484375 C-137.64183853 70.87726044 -136.99852081 70.53967712 -136.33570862 70.19186401 C-134.24885958 69.09876826 -132.15572669 68.01832399 -130.0625 66.9375 C-127.87269097 65.79335318 -125.68464472 64.64588005 -123.49658203 63.49839783 C-122.03947522 62.73465445 -120.58179332 61.97200722 -119.12353516 61.21046448 C-113.25390636 58.1440984 -107.42869016 55.00198435 -101.625 51.8125 C-90.55574898 45.74540981 -79.44134369 39.76362103 -68.32324219 33.78662109 C-54.1860211 26.18625495 -40.05313205 18.57790068 -25.9375 10.9375 C-24.9686084 10.41341553 -23.9997168 9.88933105 -23.00146484 9.34936523 C-22.08187988 8.85122314 -21.16229492 8.35308105 -20.21484375 7.83984375 C-19.33908691 7.36587158 -18.46333008 6.89189941 -17.56103516 6.40356445 C-14.31652265 4.62542314 -11.10483564 2.79134967 -7.90161133 0.93994141 C-5.05821755 -0.46551065 -3.09318142 -0.6326962 0 0 Z " fill="#A29E89" transform="translate(195,290)"/>
<path d="M0 0 C2.38671875 2.109375 2.38671875 2.109375 4.6875 4.75 C5.54859375 5.73742187 6.4096875 6.72484375 7.296875 7.7421875 C10.5649274 11.63871151 13.70361012 15.63518758 16.81640625 19.65625 C20.00916623 23.77536006 23.30240533 27.78770705 26.6875 31.75 C30.56417896 36.28874972 34.34894717 40.88609704 38.05859375 45.5625 C40.82628803 49.03743206 43.64808384 52.46715285 46.46484375 55.90234375 C49.40348639 59.48906099 52.32685606 63.08814845 55.25 66.6875 C55.79841553 67.36272705 56.34683105 68.0379541 56.91186523 68.73364258 C59.17715584 71.52308374 61.44208426 74.31281889 63.70703125 77.10253906 C71.58956541 86.81263613 71.58956541 86.81263613 79.5 96.5 C81.00014989 98.33321069 82.50013456 100.16655658 84 102 C84.48968262 102.59780273 84.97936523 103.19560547 85.48388672 103.81152344 C88.80460297 107.86826953 92.10737908 111.93877165 95.39550781 116.02197266 C96.93302687 117.91743513 98.4916965 119.79350107 100.0546875 121.66796875 C100.9747595 122.7988278 101.89407394 123.93030379 102.8125 125.0625 C103.62332031 126.04347656 104.43414062 127.02445313 105.26953125 128.03515625 C107.37951804 131.6502352 107.45642037 133.87749345 107 138 C104.97164659 141.04253011 103.75083727 141.83314727 100.1875 142.625 C92.94412395 141.20473019 88.73934067 134.65212747 84.4296875 129.1015625 C81.3730971 125.19974132 78.22042115 121.38244419 75.0625 117.5625 C73.84100876 116.08214434 72.61965241 114.60167738 71.3984375 113.12109375 C70.81545898 112.41452637 70.23248047 111.70795898 69.63183594 110.97998047 C66.074784 106.66404821 62.53832761 102.33128615 59 98 C57.50014304 96.16654964 56.0001406 94.33321829 54.5 92.5 C9.5 37.5 9.5 37.5 7.25 34.74609375 C5.75510077 32.92159001 4.25512379 31.10123443 2.75 29.28515625 C0.48043566 26.53882579 -1.76041941 23.77081217 -4 21 C-4.42442383 20.49259277 -4.84884766 19.98518555 -5.28613281 19.46240234 C-6.58513204 17.90639993 -7.8564932 16.33090399 -9.125 14.75 C-9.89070313 13.81671875 -10.65640625 12.8834375 -11.4453125 11.921875 C-13.45295052 8.14872616 -13.03637427 6.07705727 -12 2 C-8.55595082 -2.6964307 -4.97262917 -2.17669805 0 0 Z " fill="#A09B87" transform="translate(305,319)"/>
<path d="M0 0 C2.4375 2.125 2.4375 2.125 4 5 C3.64438528 10.22056658 2.15068526 14.63298108 0.0703125 19.37890625 C-0.38214088 20.44001869 -0.38214088 20.44001869 -0.84373474 21.52256775 C-1.50061825 23.0610092 -2.16121487 24.59786939 -2.82510376 26.13330078 C-4.6625895 30.38478655 -6.47113915 34.64861793 -8.28515625 38.91015625 C-8.66953354 39.81089874 -9.05391083 40.71164124 -9.44993591 41.63967896 C-13.82012333 51.8923217 -18.06819885 62.19476221 -22.3125 72.5 C-23.10554978 74.4235363 -23.8986817 76.34703874 -24.69189453 78.27050781 C-26.30309867 82.17800566 -27.91367588 86.08576118 -29.52392578 89.99365234 C-32.07384115 96.18072898 -34.62821844 102.36595799 -37.18359375 108.55078125 C-37.61001663 109.58286713 -38.03643951 110.614953 -38.4757843 111.67831421 C-39.32265349 113.72793348 -40.16954146 115.777545 -41.01644897 117.82714844 C-43.37112404 123.52574514 -43.37112404 123.52574514 -45.72492981 129.22470093 C-46.45084037 130.98146893 -47.17769265 132.73784816 -47.90556335 134.49380493 C-49.62654201 138.64961055 -51.32938749 142.81106734 -52.99414062 146.98974609 C-53.30953796 147.77492111 -53.6249353 148.56009613 -53.94989014 149.36906433 C-54.53738576 150.83389031 -55.118917 152.30112897 -55.69317627 153.77119446 C-58.14344051 159.85469885 -58.14344051 159.85469885 -61 162 C-64.01523464 163.03152764 -65.60370446 163.1105941 -68.6875 162.25 C-71 161 -71 161 -73 158 C-73.74707001 151.63045784 -71.70066967 146.96745427 -69.22265625 141.2578125 C-68.6264296 139.84257294 -68.6264296 139.84257294 -68.01815796 138.39874268 C-66.71091672 135.30256697 -65.38661969 132.21399025 -64.0625 129.125 C-63.14261531 126.95320645 -62.22409355 124.78083516 -61.30688477 122.60791016 C-59.43778292 118.18242936 -57.56324092 113.75931739 -55.68457031 109.33789062 C-52.22713458 101.18977803 -48.83535344 93.01491477 -45.45446777 84.83480835 C-44.4349555 82.36884545 -43.41356868 79.90366717 -42.39160156 77.4387207 C-38.56222971 68.20102907 -34.74354673 58.95894985 -30.9296875 49.71484375 C-30.50230789 48.67918274 -30.07492828 47.64352173 -29.63459778 46.57647705 C-27.56098428 41.55136558 -25.48834378 36.52585778 -23.41772461 31.49951172 C-21.94659703 27.92846423 -20.4677293 24.36078406 -18.98291016 20.79541016 C-17.7220834 17.76485374 -16.49223247 14.72541205 -15.29443359 11.66943359 C-15.0325676 11.01782761 -14.7707016 10.36622162 -14.50090027 9.69487 C-13.82086641 8.00265355 -13.15522037 6.30467394 -12.4909668 4.60620117 C-9.50449172 -0.61413965 -5.6099292 -1.90976313 0 0 Z " fill="#A29D88" transform="translate(242,306)"/>
<path d="M0 0 C1.35301321 0.26172796 2.70611446 0.5230012 4.05929565 0.78385925 C7.70040404 1.48735736 11.34011095 2.19785631 14.9794879 2.91025114 C18.02617819 3.50608591 21.07348238 4.09874855 24.12076724 4.69153368 C31.30745142 6.08973993 38.49293478 7.49400004 45.67773438 8.90185547 C53.08043177 10.35227441 60.48527594 11.79133239 67.89122045 13.22507036 C74.26651135 14.45975659 80.64030715 15.70195858 87.01298106 16.95008147 C90.81218196 17.69406458 94.61190053 18.4350858 98.4131279 19.16865158 C101.98211317 19.85769346 105.54914056 20.5560942 109.11488724 21.26169777 C111.04366632 21.64095945 112.97432757 22.01060969 114.9050293 22.37995911 C116.05715912 22.6098201 117.20928894 22.83968109 118.39633179 23.07650757 C119.39509527 23.27155066 120.39385876 23.46659374 121.4228878 23.66754723 C124.40623866 24.52564455 126.62260203 25.68064574 129.16259766 27.45556641 C130.70846641 30.54730392 130.45619287 33.04986193 130.16259766 36.45556641 C128.85009766 38.89306641 128.85009766 38.89306641 126.16259766 40.45556641 C117.77530052 41.37105468 109.61649352 39.66486058 101.43286133 38.00878906 C100.09141072 37.74514417 98.74978104 37.482409 97.4079895 37.22050476 C93.79692807 36.51291685 90.18854342 35.79248086 86.58056808 35.06934404 C82.7904868 34.3118082 78.99817153 33.56561662 75.20613098 32.81796265 C68.84589175 31.56225809 62.48725639 30.29869228 56.12963867 29.02978516 C48.78933129 27.56478901 41.44710827 26.10975003 34.10366458 24.66056216 C26.26344961 23.11332222 18.42443497 21.56007455 10.58589005 20.00439787 C8.33493368 19.55799501 6.08378493 19.11257296 3.83260155 18.66731644 C0.29330756 17.96688855 -3.24514154 17.26233408 -6.78298569 16.55462074 C-8.6944408 16.17314666 -10.60664713 15.79544273 -12.51887512 15.41786194 C-13.66396545 15.18793045 -14.80905579 14.95799896 -15.98884583 14.72109985 C-17.47454685 14.42520431 -17.47454685 14.42520431 -18.99026203 14.12333107 C-27.36898213 12.15819673 -27.36898213 12.15819673 -29.83740234 8.45556641 C-30.60561426 1.54165912 -30.60561426 1.54165912 -28.02490234 -2.10693359 C-19.93648275 -5.75465223 -8.37320512 -1.64474399 0 0 Z " fill="#A5A08B" transform="translate(350.83740234375,275.54443359375)"/>
<path d="M0 0 C3.375 1 3.375 1 5.3125 2.625 C7.28021381 7.0234191 6.69426342 11.01545046 5.23608398 15.51220703 C4.71040057 16.76611941 4.17129228 18.01446183 3.62109375 19.2578125 C3.32930237 19.94543671 3.03751099 20.63306091 2.73687744 21.34152222 C2.10470945 22.82766173 1.46690832 24.31141518 0.82406616 25.79296875 C-0.56722422 29.0004037 -1.93041686 32.2195481 -3.295578 35.43817139 C-4.00937583 37.1204396 -4.72457344 38.80211451 -5.44111633 40.48321533 C-8.72925689 48.20555993 -11.89773877 55.97344616 -15.03424072 63.75839233 C-16.56318322 67.55275051 -18.09839988 71.34457015 -19.6328125 75.13671875 C-19.94672943 75.91286026 -20.26064636 76.68900177 -20.58407593 77.48866272 C-24.41236383 86.95147422 -28.25448916 96.40862582 -32.10946655 105.8605957 C-32.90379763 107.80965981 -33.69697284 109.75919542 -34.48892212 111.70922852 C-35.59768107 114.43889884 -36.71047553 117.16689146 -37.82421875 119.89453125 C-38.14965668 120.69816605 -38.4750946 121.50180084 -38.81039429 122.32978821 C-44.6116484 136.4933242 -44.6116484 136.4933242 -47.625 138 C-53.84356639 138.57579318 -53.84356639 138.57579318 -57 136.25 C-58.71041908 133.88172743 -59.31670559 132.87202185 -59.625 130 C-58.91618336 127.56681835 -58.13902719 125.33586331 -57.1953125 122.99609375 C-56.92276642 122.29657089 -56.65022034 121.59704803 -56.36941528 120.87632751 C-55.46830962 118.57851596 -54.54892687 116.28872404 -53.625 114 C-53.16619446 112.85691376 -53.16619446 112.85691376 -52.69812012 111.69073486 C-50.32984631 105.80181649 -47.9167743 99.93163991 -45.5 94.0625 C-44.31693503 91.18156604 -43.13473721 88.30027709 -41.95252991 85.41899109 C-41.12740657 83.40822323 -40.30199404 81.39757403 -39.4763031 79.38703918 C-34.6103772 67.5368851 -29.77464746 55.67442274 -24.9375 43.8125 C-24.10469065 41.77024911 -23.27184645 39.72801244 -22.43896484 37.68579102 C-22.04046326 36.70823349 -21.64196167 35.73067596 -21.23138428 34.72349548 C-20.45421241 32.82009136 -19.67516772 30.91745067 -18.894104 29.01564026 C-17.11156373 24.67235901 -15.35413377 20.32361767 -13.66552734 15.94287109 C-13.35818161 15.15933762 -13.05083588 14.37580414 -12.73417664 13.56852722 C-12.17029742 12.1283229 -11.61752532 10.68369174 -11.07893372 9.23384094 C-8.84703687 3.58970127 -6.33957741 0 0 0 Z " fill="#A19D88" transform="translate(345.625,36)"/>
<path d="M0 0 C3.09179688 1.4519043 3.09179688 1.4519043 6.21875 3.32421875 C6.78968887 3.66185745 7.36062775 3.99949615 7.9488678 4.34736633 C9.8061433 5.44961941 11.65297025 6.56817815 13.5 7.6875 C14.80405992 8.46640997 16.10867362 9.2443935 17.41381836 10.02148438 C21.2854488 12.33193449 25.14359603 14.6642547 29 17 C30.03914551 17.62729004 31.07829102 18.25458008 32.14892578 18.90087891 C37.77352781 22.2988579 43.38177913 25.722936 48.98486328 29.15625 C54.05031595 32.25376405 59.12793065 35.33121441 64.20458984 38.41030884 C65.98474564 39.49074165 67.7639992 40.57264458 69.54296875 41.6550293 C75.2772383 45.14275644 81.02004077 48.61422473 86.78515625 52.05078125 C87.84541016 52.68628906 88.90566406 53.32179687 89.99804688 53.9765625 C91.98892684 55.16931404 93.98353171 56.35587791 95.98242188 57.53515625 C96.86607422 58.06625 97.74972656 58.59734375 98.66015625 59.14453125 C99.81463257 59.83059448 99.81463257 59.83059448 100.99243164 60.53051758 C104.24738283 62.91304843 105.82098003 64.9482577 106.5 68.9375 C105.81303325 73.14517131 104.4272611 74.52070473 101 77 C95.62394295 77.53319878 92.54022359 76.64698754 87.95703125 73.87890625 C87.39976349 73.54805527 86.84249573 73.21720428 86.26834106 72.87632751 C84.44059074 71.78618914 82.62686566 70.67474755 80.8125 69.5625 C79.52169497 68.78646112 78.23009478 68.01174346 76.93774414 67.23828125 C73.59791414 65.2342133 70.26955909 63.21188886 66.94421387 61.18389893 C63.918701 59.34155972 60.88470577 57.5133316 57.8515625 55.68359375 C52.6490128 52.54103228 47.45692915 49.38160492 42.26933289 46.21443176 C37.45640828 43.27647762 32.63718014 40.34901305 27.81559753 37.42529297 C24.82554436 35.61216792 21.83624072 33.79784838 18.84936523 31.97949219 C13.70789835 28.85026373 8.56137074 25.73166362 3.3828125 22.6640625 C2.5470166 22.16503418 1.7112207 21.66600586 0.85009766 21.15185547 C-0.65338786 20.25501214 -2.16116392 19.36529852 -3.67431641 18.48486328 C-7.58925001 16.13821794 -10.5046235 13.94307585 -13 10 C-13.07481382 5.73561227 -12.64839572 3.76281849 -9.875 0.5 C-6.05928089 -1.49080997 -4.16859094 -0.90083492 0 0 Z " fill="#A19D88" transform="translate(87,152)"/>
<path d="M0 0 C5.14081199 3.99433251 6.66037406 8.55647606 8.609375 14.51953125 C8.93364975 15.47027023 9.2579245 16.42100922 9.59202576 17.40055847 C10.65783535 20.53358608 11.70357275 23.67295158 12.75 26.8125 C13.87181824 30.12295605 14.99896538 33.43156978 16.12614441 36.74020386 C16.90424394 39.02569004 17.68059788 41.3117712 18.45527649 43.59841919 C22.58343019 55.77353971 26.87771533 67.88823819 31.1875 80 C31.88851654 81.97365375 32.58936718 83.94736644 33.29003906 85.92114258 C33.62486298 86.86379471 33.95968689 87.80644684 34.30465698 88.77766418 C34.95435228 90.60835648 35.60308294 92.43939147 36.25076294 94.27079773 C37.74834636 98.5014281 39.26193228 102.72440215 40.81884766 106.93359375 C41.10141922 107.70695068 41.38399078 108.48030762 41.67512512 109.27709961 C42.19709734 110.70399933 42.72633965 112.12827243 43.26469421 113.54907227 C44.6986069 117.49572801 45.44849953 120.80443241 45 125 C42.51397551 128.36344489 41.08574477 129.80057749 36.9375 130.5625 C33.30958003 129.86779192 32.37579457 128.77130602 30 126 C28.88082886 123.72946167 28.88082886 123.72946167 27.99560547 121.19873047 C27.65295151 120.2374826 27.31029755 119.27623474 26.95726013 118.28585815 C26.59753616 117.24019684 26.23781219 116.19453552 25.8671875 115.1171875 C25.47737198 114.0144046 25.08755646 112.9116217 24.68592834 111.77542114 C23.40521873 108.14551425 22.14028218 104.51030994 20.875 100.875 C19.99028119 98.36021945 19.10456918 95.84581862 18.21704102 93.33203125 C16.84837629 89.45350843 15.4805508 85.57470507 14.11799622 81.69403076 C9.84491377 69.52610562 5.48987477 57.38821641 1.11260986 45.25738525 C-0.04319901 42.05350202 -1.1969266 38.84887646 -2.35009766 35.64404297 C-3.05754982 33.67933772 -3.76506579 31.71465545 -4.47265625 29.75 C-4.78742416 28.8753006 -5.10219208 28.0006012 -5.42649841 27.09939575 C-6.82021502 23.23467354 -8.23146184 19.37953445 -9.69335938 15.54003906 C-11.33019092 11.10542446 -11.54341498 8.65784265 -11 4 C-8.16650967 -0.53358453 -5.10426635 -0.80593679 0 0 Z " fill="#A19D88" transform="translate(272,298)"/>
<path d="M0 0 C2 2.9375 2 2.9375 2 6.5625 C1.00193983 9.93095307 0.68339831 10.88856959 -2 12.9375 C-4.48208618 13.62895203 -4.48208618 13.62895203 -7.51416016 14.0847168 C-8.67346039 14.26541214 -9.83276062 14.44610748 -11.02719116 14.63227844 C-12.3098587 14.81936874 -13.59252625 15.00645905 -14.9140625 15.19921875 C-16.28627509 15.4084309 -17.65831055 15.61880766 -19.03018188 15.83024597 C-22.04817241 16.29332615 -25.06717634 16.7489202 -28.08703613 17.199646 C-33.21557685 17.96676518 -38.33982402 18.76059971 -43.46386719 19.55712891 C-51.87895101 20.86337047 -60.29637989 22.15349021 -68.71563339 23.43257332 C-73.57130699 24.17032169 -78.42652876 24.9107841 -83.28076172 25.65795898 C-88.07479772 26.39585489 -92.86979042 27.12719593 -97.66554642 27.85382652 C-99.4670808 28.12786099 -101.26827738 28.40412677 -103.06910324 28.68277931 C-105.57038515 29.06931699 -108.07281606 29.44737209 -110.57568359 29.82348633 C-111.29878723 29.9371907 -112.02189087 30.05089508 -112.76690674 30.16804504 C-125.97862323 32.12074494 -125.97862323 32.12074494 -130.5625 29.4375 C-132.27960321 26.45123355 -132.51632705 24.3281205 -132.62890625 20.9375 C-131.59766778 17.65803356 -129.90229176 16.77494833 -127 14.9375 C-123.31641348 13.92761347 -119.58390967 13.43607694 -115.80322266 12.92285156 C-114.1072419 12.67325935 -114.1072419 12.67325935 -112.3769989 12.41862488 C-108.64141442 11.87294464 -104.90300253 11.35027554 -101.1640625 10.828125 C-98.56462791 10.45395478 -95.96537656 10.07850954 -93.36630249 9.70184326 C-87.91886801 8.91469906 -82.4698375 8.13955363 -77.01953125 7.37255859 C-70.03768383 6.38998 -63.05875811 5.38806642 -56.08057594 4.37982559 C-49.42193419 3.41789 -42.76173282 2.46691204 -36.1015625 1.515625 C-34.83226521 1.33344673 -33.56296791 1.15126846 -32.25520706 0.96356964 C-28.65604492 0.44866703 -25.05599307 -0.05945462 -21.45556641 -0.56542969 C-20.39455215 -0.71810806 -19.3335379 -0.87078644 -18.2403717 -1.02809143 C-4.3130514 -2.96522284 -4.3130514 -2.96522284 0 0 Z " fill="#A39F8A" transform="translate(223,263.0625)"/>
<path d="M0 0 C1.69458008 2.1915741 1.69458008 2.1915741 1.69458008 5.6915741 C0.57838021 9.59827364 0.04290061 10.93145774 -3.30541992 13.1915741 C-9.14423771 14.89030021 -15.24084283 15.72546736 -21.24658203 16.61198425 C-22.09014755 16.73907272 -22.93371307 16.86616119 -23.80284119 16.99710083 C-26.56230849 17.41175232 -29.32246886 17.82153244 -32.08276367 18.2306366 C-34.01893711 18.51916668 -35.95509924 18.80777269 -37.89125061 19.09645081 C-41.93805737 19.69888886 -45.98526167 20.29857337 -50.03271484 20.89665222 C-55.19927458 21.66058844 -60.36433625 22.43419047 -65.52908993 23.21022987 C-69.52368359 23.80884723 -73.51923559 24.40086364 -77.51507759 24.99108505 C-79.41906174 25.27339298 -81.32270017 25.55804356 -83.2259655 25.84515762 C-85.89462573 26.24701197 -88.56450672 26.63955204 -91.23486328 27.029953 C-92.00763611 27.14837051 -92.78040894 27.26678802 -93.57659912 27.38879395 C-108.36880506 29.51414035 -108.36880506 29.51414035 -112.86791992 26.4415741 C-114.31708653 24.17331331 -115.14300158 22.87147666 -115.30541992 20.1915741 C-114.22068467 16.14846999 -112.89775913 14.29129831 -109.30541992 12.1915741 C-106.34613973 11.40522808 -103.35053369 10.99143119 -100.32104492 10.56584167 C-99.41314713 10.42885361 -98.50524933 10.29186554 -97.56983948 10.15072632 C-94.56663996 9.70081246 -91.56124933 9.26807183 -88.55541992 8.83610535 C-86.45984568 8.52729074 -84.36438814 8.21768321 -82.26904297 7.90731812 C-77.87190697 7.25866251 -73.47367379 6.61823747 -69.07446289 5.98381042 C-63.46190103 5.1739431 -57.85217659 4.34610735 -52.24313354 3.51225758 C-47.91154074 2.8700012 -43.57872318 2.23634651 -39.2454834 1.60530663 C-37.17848181 1.3034735 -35.11182239 0.99928679 -33.04553223 0.69262123 C-4.498679 -3.52887019 -4.498679 -3.52887019 0 0 Z " fill="#A4A08A" transform="translate(407.305419921875,235.8084259033203)"/>
<path d="M0 0 C3.23665566 0.94428342 4.14060973 2.81842089 6.03515625 5.59375 C7.52335072 8.91185092 8.71164558 12.32087993 9.90625 15.75390625 C10.26538986 16.76015045 10.62452972 17.76639465 10.99455261 18.8031311 C12.16331957 22.08425264 13.31828253 25.37003989 14.47265625 28.65625 C15.27370042 30.91738424 16.07562675 33.17820615 16.87841797 35.4387207 C18.09328437 38.85985457 19.30743936 42.28121966 20.51776123 45.70396423 C22.99765251 52.70997572 25.52678469 59.69529841 28.109375 66.6640625 C28.72025299 68.32018703 29.33101547 69.97635418 29.94165039 71.63256836 C30.79082804 73.93491643 31.64307132 76.23581602 32.50680542 78.53274536 C33.28939862 80.61589936 34.05816023 82.703689 34.82421875 84.79296875 C35.25428223 85.94627686 35.6843457 87.09958496 36.12744141 88.2878418 C37.12327767 91.91468927 37.34652356 94.84976847 37.03515625 98.59375 C34.56457728 102.00896211 33.12365362 103.37160768 28.97265625 104.21875 C24.91803879 103.35606543 24.32335946 102.06160599 22.03515625 98.59375 C20.46304971 95.0211465 19.18891998 91.35805131 17.91015625 87.671875 C17.5260408 86.59079468 17.14192535 85.50971436 16.74617004 84.39587402 C15.49975464 80.88174632 14.26709952 77.36297453 13.03515625 73.84375 C11.75808894 70.22329767 10.47831602 66.60381012 9.19819641 62.98443604 C8.34797929 60.58002261 7.49892738 58.17519684 6.65104675 55.7699585 C4.20445881 48.84220464 1.70386856 41.93912693 -0.8828125 35.0625 C-1.16947784 34.29605164 -1.45614319 33.52960327 -1.75149536 32.7399292 C-3.32187846 28.54033133 -3.32187846 28.54033133 -4.92114258 24.35168457 C-7.6572665 17.25804666 -9.94069998 11.24446281 -8.96484375 3.59375 C-6.4456501 0.24376354 -4.1176143 0.19040991 0 0 Z " fill="#A09C87" transform="translate(199.96484375,96.40625)"/>
<path d="M0 0 C0.8723412 2.99480917 1.10829766 5.63575911 1.0625 8.75 C1.05347656 9.54921875 1.04445313 10.3484375 1.03515625 11.171875 C1.02355469 11.77515625 1.01195313 12.3784375 1 13 C1.721875 13.2475 2.44375 13.495 3.1875 13.75 C6.24713266 15.10983674 8.4673738 16.82917754 11 19 C10.81640625 20.890625 10.81640625 20.890625 10 23 C7.71484375 24.046875 7.71484375 24.046875 4.9375 24.75 C3.55884766 25.11351562 3.55884766 25.11351562 2.15234375 25.484375 C1.44207031 25.65453125 0.73179688 25.8246875 0 26 C-0.13277344 26.69867188 -0.26554687 27.39734375 -0.40234375 28.1171875 C-0.57894531 29.02726562 -0.75554688 29.93734375 -0.9375 30.875 C-1.19853516 32.23238281 -1.19853516 32.23238281 -1.46484375 33.6171875 C-2 36 -2 36 -3 38 C-5.125 37.9375 -5.125 37.9375 -8 37 C-8.89012522 35.83920974 -9.74042519 34.647438 -10.5625 33.4375 C-12.68600016 30.69207763 -13.55274844 30.0675745 -17.05078125 29.5390625 C-20.06149999 29.56028966 -23.00545893 29.69473125 -26 30 C-26.6640625 28.2265625 -26.6640625 28.2265625 -27 26 C-25.8984375 24.2109375 -25.8984375 24.2109375 -24.375 22.375 C-22.55215193 19.71543478 -21.91026571 18.63577701 -22.3671875 15.3984375 C-22.94096644 13.67710067 -23.57155306 11.97332569 -24.265625 10.296875 C-25.08816059 7.7242637 -24.89651648 6.50564863 -24 4 C-23.14277344 4.13019531 -22.28554688 4.26039063 -21.40234375 4.39453125 C-13.72159149 5.56832199 -13.72159149 5.56832199 -6.9375 2.5625 C-4 0 -4 0 0 0 Z " fill="#9C9884" transform="translate(39,309)"/>
<path d="M0 0 C2.475 0.495 2.475 0.495 5 1 C5 4.96 5 8.92 5 13 C6.65 13.66 8.3 14.32 10 15 C12.38088669 16.26182389 14.67617651 17.63304501 17 19 C14.50163593 22.01885659 12.63952501 23.17733614 8.9375 24.125 C6.80114799 24.72192135 6.80114799 24.72192135 5 26 C3.41445479 29.22865147 2.63561661 32.47100363 2 36 C-0.475 36.495 -0.475 36.495 -3 37 C-4.00593243 35.8803014 -5.0045849 34.7540588 -6 33.625 C-6.556875 32.99851562 -7.11375 32.37203125 -7.6875 31.7265625 C-9 30 -9 30 -9 28 C-9.66 28.33 -10.32 28.66 -11 29 C-12.87379605 29.07033769 -14.75001102 29.0843022 -16.625 29.0625 C-17.62789063 29.05347656 -18.63078125 29.04445313 -19.6640625 29.03515625 C-20.43492187 29.02355469 -21.20578125 29.01195312 -22 29 C-22.65625 27.2109375 -22.65625 27.2109375 -23 25 C-21.96875 23.2890625 -21.96875 23.2890625 -20.5 21.625 C-18.23900802 18.71560921 -18.23900802 18.71560921 -18.0625 15 C-18.371875 14.01 -18.68125 13.02 -19 12 C-19.35549971 10.70869958 -19.70965679 9.41702882 -20.0625 8.125 C-20.371875 7.09375 -20.68125 6.0625 -21 5 C-20.67 4.67 -20.34 4.34 -20 4 C-17.76813755 4.2246643 -15.5393424 4.48007971 -13.3125 4.75 C-8.44270654 5.30881334 -8.44270654 5.30881334 -3.9140625 3.921875 C-2.58366773 2.64075411 -1.28935542 1.32241581 0 0 Z " fill="#9A9682" transform="translate(484,391)"/>
<path d="M0 0 C1.32 0 2.64 0 4 0 C4.67154933 1.28913487 5.33708859 2.58140204 6 3.875 C6.37125 4.59429687 6.7425 5.31359375 7.125 6.0546875 C8 8 8 8 8 10 C8.84304687 10.13277344 9.68609375 10.26554687 10.5546875 10.40234375 C11.65039062 10.57894531 12.74609375 10.75554687 13.875 10.9375 C14.96554688 11.11152344 16.05609375 11.28554688 17.1796875 11.46484375 C20 12 20 12 22 13 C20.82099245 16.06541964 19.37291426 17.50873816 16.875 19.5 C14.49927245 21.725803 14.03047148 22.76171305 13.609375 26.0546875 C13.62350575 29.05747175 13.73866484 32.00916423 14 35 C12.515 35.495 12.515 35.495 11 36 C9.27607061 34.95913697 7.55241292 33.91781018 5.83203125 32.87109375 C2.92317142 31.48798982 0.99119768 32.02460945 -2 33 C-3.67016516 33.99414593 -5.33720673 34.9935725 -7 36 C-8.32 36 -9.64 36 -11 36 C-11.13157895 29.42105263 -11.13157895 29.42105263 -10.0625 26 C-9.66349553 22.98961381 -9.66349553 22.98961381 -11.52734375 21.24609375 C-12.82391325 20.05735776 -14.15896678 18.90905933 -15.53125 17.80859375 C-16.0159375 17.21175781 -16.500625 16.61492187 -17 16 C-16.67 14.35 -16.34 12.7 -16 11 C-10.555 10.505 -10.555 10.505 -5 10 C-4.34 8.35 -3.68 6.7 -3 5 C-1.625 2.1875 -1.625 2.1875 0 0 Z " fill="#999581" transform="translate(84,471)"/>
<path d="M0 0 C1.32 0 2.64 0 4 0 C4.11214844 0.79664062 4.22429688 1.59328125 4.33984375 2.4140625 C5.43062547 8.89080128 5.43062547 8.89080128 9.203125 14.02734375 C11.64436154 15.58175282 11.64436154 15.58175282 14.13671875 16.81640625 C14.75160156 17.20699219 15.36648437 17.59757812 16 18 C16 18.99 16 19.98 16 21 C14.54462432 21.83848804 13.08559627 22.67063934 11.625 23.5 C10.81289063 23.9640625 10.00078125 24.428125 9.1640625 24.90625 C7 26 7 26 5 26 C4.67 29.63 4.34 33.26 4 37 C1.525 37.495 1.525 37.495 -1 38 C-2.59765625 36.53125 -2.59765625 36.53125 -4.0625 34.5 C-6.48639052 31.77985619 -7.42081551 31.04572509 -11.1171875 30.75390625 C-14.12072686 31.03305873 -17.0402686 31.42166168 -20 32 C-19.24390244 25.44715447 -19.24390244 25.44715447 -17.875 22.9375 C-16.57035519 20.04864363 -17.23191221 18.00834384 -18 15 C-18.66 14.01 -19.32 13.02 -20 12 C-20 10.68 -20 9.36 -20 8 C-19.14277344 8.0928125 -18.28554688 8.185625 -17.40234375 8.28125 C-10.63622439 8.91828015 -10.63622439 8.91828015 -4.71875 6.21875 C-2.91662291 4.04729222 -2.91662291 4.04729222 -1.46484375 1.75 C-0.98144531 1.1725 -0.49804688 0.595 0 0 Z " fill="#9A9682" transform="translate(49,71)"/>
<path d="M0 0 C2.38671875 0.3203125 2.38671875 0.3203125 5 1 C7.02201431 4.20733304 8 6.19154436 8 10 C8.60328125 9.98839844 9.2065625 9.97679687 9.828125 9.96484375 C11.02695312 9.95130859 11.02695312 9.95130859 12.25 9.9375 C13.43335938 9.92009766 13.43335938 9.92009766 14.640625 9.90234375 C16.90691002 9.99614694 18.8288895 10.36758937 21 11 C20.875 13.125 20.875 13.125 20 16 C18.989375 16.845625 17.97875 17.69125 16.9375 18.5625 C14.50975376 20.75848049 14.03418334 21.73567142 13.60546875 25.05078125 C13.62311595 28.05433418 13.73859316 31.00834392 14 34 C12.21484375 34.625 12.21484375 34.625 10 35 C8.23429212 33.97267905 6.4696163 32.94276463 4.73046875 31.87109375 C2.9319083 30.79554475 2.9319083 30.79554475 0.375 31.0625 C-2.10543809 31.95054116 -2.10543809 31.95054116 -4.5 33.625 C-7.5694533 35.31319931 -8.70326289 34.82418428 -12 34 C-11.78730469 32.82244141 -11.78730469 32.82244141 -11.5703125 31.62109375 C-10.53104128 25.489956 -10.53104128 25.489956 -12.26953125 19.75 C-13.89138766 17.92905362 -13.89138766 17.92905362 -15.65234375 16.40234375 C-17 15 -17 15 -17 12 C-16.19175781 11.88785156 -15.38351562 11.77570312 -14.55078125 11.66015625 C-8.10863176 10.61289826 -8.10863176 10.61289826 -3.08984375 6.796875 C-1.88585677 4.56440935 -0.85989403 2.38470612 0 0 Z " fill="#9A9682" transform="translate(404,0)"/>
<path d="M0 0 C3.48971442 2.82849661 5.04539896 5.79893284 6.76171875 9.90234375 C7.24060547 11.03994141 7.71949219 12.17753906 8.21289062 13.34960938 C8.94282227 15.12561523 8.94282227 15.12561523 9.6875 16.9375 C10.18572266 18.11763672 10.68394531 19.29777344 11.19726562 20.51367188 C16.58473653 33.43044405 16.58473653 33.43044405 14.8125 38.1875 C12.24961948 42.16438356 12.24961948 42.16438356 9 43 C6 42.9375 6 42.9375 3 42 C-1.60766606 37.05326344 -3.63186467 31.2012239 -6.05639648 24.98950195 C-6.81169913 23.06454109 -7.59143254 21.15073109 -8.37304688 19.23632812 C-8.85451172 18.01494141 -9.33597656 16.79355469 -9.83203125 15.53515625 C-10.27264893 14.425354 -10.7132666 13.31555176 -11.16723633 12.17211914 C-12.09172452 8.65060782 -11.9500873 6.4916259 -11 3 C-7.85840526 -0.62491701 -4.58722309 -0.57340289 0 0 Z " fill="#9B9783" transform="translate(180,45)"/>
<path d="M0 0 C2.42759999 2.26575999 2.94279865 3.49913944 3.3203125 6.8046875 C2.7174454 12.81865447 -2.0854573 16.67018599 -6 21 C-6.69222656 21.82113281 -7.38445312 22.64226562 -8.09765625 23.48828125 C-11.1779879 26.93604809 -13.47410449 29.47703969 -18.25 29.8125 C-22 29 -22 29 -24.5 26.875 C-26.27063892 23.48127541 -26.41250442 21.78754056 -26 18 C-24.3125 15.2890625 -24.3125 15.2890625 -22 12.625 C-21.18273437 11.68140625 -20.36546875 10.7378125 -19.5234375 9.765625 C-7.58511041 -3.3184858 -7.58511041 -3.3184858 0 0 Z " fill="#9A9682" transform="translate(111,422)"/>
<path d="M0 0 C2.6209402 3.9314103 2.81751502 5.31786854 2 10 C-0.00202284 12.719562 -2.19890454 15.07710653 -4.55859375 17.4921875 C-6.76032941 19.75381037 -8.67628887 22.08555055 -10.625 24.5625 C-13.10858289 27.41487478 -13.89115306 27.96679246 -17.6875 29.125 C-22.50141643 28.94334278 -22.50141643 28.94334278 -25 27 C-27.32081507 23.7508589 -27.44387048 20.90983788 -27 17 C-25.34595255 14.73966469 -23.83452445 12.94849109 -21.875 11 C-21.37162109 10.47817139 -20.86824219 9.95634277 -20.34960938 9.41870117 C-19.35647053 8.39304504 -18.3569666 7.37350625 -17.35058594 6.36083984 C-16.23022814 5.23197608 -15.13167878 4.0815168 -14.0390625 2.92578125 C-9.16104105 -2.18747474 -6.61523307 -2.4055393 0 0 Z " fill="#999581" transform="translate(431,67)"/>
<path d="M0 0 C2.5881216 2.25417042 2.94242643 3.60520979 3.4375 7 C2.88656957 10.77780866 1.93084211 11.61387032 -1 14 C-4.05859375 15.15234375 -4.05859375 15.15234375 -7.4375 15.9375 C-9.10619141 16.35322266 -9.10619141 16.35322266 -10.80859375 16.77734375 C-14.6368745 17.0444331 -16.02640555 16.35475116 -19 14 C-21 11 -21 11 -20.875 7.5 C-20 4 -20 4 -18.5 2.1875 C-12.54776044 -0.63981379 -6.43806088 -1.80265705 0 0 Z " fill="#94907D" transform="translate(443,229)"/>
<path d="M0 0 C1.23492187 -0.03738281 2.46984375 -0.07476562 3.7421875 -0.11328125 C7.125 0.3125 7.125 0.3125 9.53515625 2.11328125 C11.86966214 5.34258546 11.74848608 7.43303103 11.125 11.3125 C7.42321861 15.33157693 4.20840069 16.09107087 -1.05078125 16.46875 C-4.5118978 16.6047022 -7.16211637 16.61547554 -10.375 15.25 C-12.67106866 12.28424465 -12.875 10.02559209 -12.875 6.3125 C-9.23456577 0.53801812 -6.59158691 0.13018727 0 0 Z " fill="#97937F" transform="translate(68.875,282.6875)"/>
<path d="M0 0 C0 0.33 0 0.66 0 1 C-0.96035156 1.14179688 -1.92070312 1.28359375 -2.91015625 1.4296875 C-8.7202109 3.08970312 -12.39973831 7.875752 -16.4375 12.125 C-17.26443359 12.97449219 -18.09136719 13.82398438 -18.94335938 14.69921875 C-20.97404703 16.7885968 -22.99211075 18.88874246 -25 21 C-25 18 -25 18 -23.27734375 16.01953125 C-22.50519531 15.29121094 -21.73304688 14.56289063 -20.9375 13.8125 C-17.23947306 10.25402124 -13.85394949 6.5992716 -10.60546875 2.62890625 C-7.14507929 -0.88199984 -4.68673773 -1.30187159 0 0 Z " fill="#23221D" transform="translate(247,268)"/>
</svg>
